:FULLY-SPECIFIED
:FORCE-ALL-JOINTS-BE-3DOF
:DEGREES
510
root 5.93061 16.2541 -5.20544 -168.717 77.6965 -173.466
lfemur -24.8599 -16.1838 -22.5016
ltibia 53.9372 -0 0
lfoot -26.5601 -4.42311 -0.108329
ltoes 7.40288 -0 0
rfemur -58.3782 6.80115 4.19596
rtibia 59.2393 -0 0
rfoot 9.90885 9.85283 -0.00287723
rtoes -19.9515 0 0
lowerback 8.94162 0.181404 -0.565456
upperback 1.64406 0.43371 3.09704
thorax -3.33179 0.28615 3.49101
lowerneck -8.60856 -12.3079 -3.89349
upperneck 11.7269 -16.3572 2.66429
head 5.47772 -7.96475 0.188952
lclavicle -2.18623e-14 1.48321e-14 -5.7458e-31
lhumerus -47.2085 -34.2022 117.848
lradius 57.4332 -0 0
lwrist 7.49654 0 0
lhand 4.5935 -0.947522 0.260895
lfingers 7.12502 -0 0
lthumb 29.9513 26.3504 0.166689
rclavicle -2.18623e-14 1.48321e-14 -5.7458e-31
rhumerus -14.255 43.7496 -77.557
rradius 114.877 -0 0
rwrist -4.26383 0 0
rhand 6.11947 -12.4847 0.17097
rfingers 7.12502 -0 0
rthumb 31.4129 -39.5294 0.241201
511
root 5.99225 16.2106 -5.14789 -169.451 76.3207 -174.14
lfemur -25.0572 -15.5836 -22.548
ltibia 55.0104 -0 0
lfoot -26.748 -3.7277 -0.131617
ltoes 6.37398 -0 0
rfemur -57.893 6.63776 3.57519
rtibia 57.8619 -0 0
rfoot 10.2729 10.0254 -0.0140117
rtoes -20.9951 0 0
lowerback 9.17268 0.241422 -0.41918
upperback 1.81544 0.558743 3.34208
thorax -3.29074 0.354923 3.65123
lowerneck -8.48755 -12.5717 -4.09387
upperneck 11.9139 -16.7035 2.78381
head 5.5576 -8.1294 0.219005
lclavicle -2.49613e-14 1.47986e-14 -7.11183e-31
lhumerus -46.9813 -33.9932 117.795
lradius 57.6751 -0 0
lwrist 8.04963 0 0
lhand 3.44445 -1.35632 0.315463
lfingers 7.12502 -0 0
lthumb 28.8492 26.081 0.201523
rclavicle -2.49613e-14 1.47986e-14 -7.11183e-31
rhumerus -11.4783 42.0036 -76.3029
rradius 116.613 -0 0
rwrist -7.19807 0 0
rhand 4.75507 -12.9116 0.248947
rfingers 7.12502 -0 0
rthumb 30.1043 -40.1099 0.342657
512
root 6.05363 16.1645 -5.09053 -170.071 74.9375 -174.709
lfemur -25.2914 -14.9241 -22.6005
ltibia 56.136 -0 0
lfoot -26.9356 -2.98217 -0.153365
ltoes 5.30666 -0 0
rfemur -57.3216 6.45213 2.93152
rtibia 56.4592 -0 0
rfoot 10.6814 10.1952 -0.0278308
rtoes -22.1015 0 0
lowerback 9.40311 0.303147 -0.261183
upperback 1.9939 0.688911 3.59693
thorax -3.24263 0.426603 3.8142
lowerneck -8.35702 -12.8405 -4.29887
upperneck 12.0936 -17.0576 2.90965
head 5.63627 -8.29757 0.250942
lclavicle -2.81886e-14 1.47082e-14 -8.38481e-31
lhumerus -46.7444 -33.7557 117.719
lradius 57.9296 -0 0
lwrist 8.63439 0 0
lhand 2.20387 -1.7942 0.363767
lfingers 7.12502 -0 0
lthumb 27.6596 25.7952 0.232313
rclavicle -2.81886e-14 1.47082e-14 -8.38481e-31
rhumerus -8.79638 40.0222 -75.2097
rradius 118.333 -0 0
rwrist -10.2623 0 0
rhand 3.21862 -13.4002 0.327445
rfingers 7.12502 -0 0
rthumb 28.6302 -40.7705 0.443902
513
root 6.11483 16.1161 -5.03342 -170.605 73.5524 -175.199
lfemur -25.5576 -14.2168 -22.6573
ltibia 57.3054 -0 0
lfoot -27.1241 -2.20103 -0.172819
ltoes 4.21215 -0 0
rfemur -56.6775 6.24779 2.27098
rtibia 55.0471 -0 0
rfoot 11.1207 10.3593 -0.043746
rtoes -23.2575 0 0
lowerback 9.63207 0.365826 -0.0937752
upperback 2.17836 0.822666 3.85911
thorax -3.18808 0.500407 3.9788
lowerneck -8.21763 -13.1123 -4.50679
upperneck 12.2646 -17.4168 3.04117
head 5.713 -8.46797 0.284692
lclavicle -3.14755e-14 1.45673e-14 -9.49566e-31
lhumerus -46.5006 -33.4905 117.619
lradius 58.1923 -0 0
lwrist 9.24713 0 0
lhand 0.887554 -2.25431 0.40335
lfingers 7.12502 -0 0
lthumb 26.3976 25.4974 0.257507
rclavicle -3.14755e-14 1.45673e-14 -9.49566e-31
rhumerus -6.23258 37.8479 -74.2949
rradius 120.029 -0 0
rwrist -13.4236 0 0
rhand 1.53759 -13.9411 0.400614
rfingers 7.12502 -0 0
rthumb 27.0168 -41.4989 0.537532
514
root 6.17589 16.0655 -4.9766 -171.072 72.1707 -175.628
lfemur -25.8511 -13.4726 -22.7166
ltibia 58.5101 -0 0
lfoot -27.3149 -1.39876 -0.189284
ltoes 3.1017 -0 0
rfemur -55.9746 6.02785 1.59966
rtibia 53.6413 -0 0
rfoot 11.5774 10.5145 -0.0610362
rtoes -24.4501 0 0
lowerback 9.85873 0.428732 0.0807284
upperback 2.36768 0.958487 4.12618
thorax -3.1277 0.575555 4.14393
lowerneck -8.07008 -13.3847 -4.71596
upperneck 12.4257 -17.7784 3.17777
head 5.78708 -8.63931 0.320193
lclavicle -3.47538e-14 1.43826e-14 -1.03839e-30
lhumerus -46.2524 -33.1982 117.498
lradius 58.4592 -0 0
lwrist 9.88406 0 0
lhand -0.488635 -2.72962 0.432223
lfingers 7.12502 -0 0
lthumb 25.0785 25.1925 0.275857
rclavicle -3.47538e-14 1.43826e-14 -1.03839e-30
rhumerus -3.79967 35.5248 -73.5649
rradius 121.694 -0 0
rwrist -16.6489 0 0
rhand -0.260415 -14.5248 0.463237
rfingers 7.12502 -0 0
rthumb 25.2905 -42.2822 0.616969
515
root 6.23689 16.0129 -4.92013 -171.487 70.7977 -176.009
lfemur -26.1669 -12.7027 -22.7761
ltibia 59.7419 -0 0
lfoot -27.5096 -0.589883 -0.202115
ltoes 1.98656 -0 0
rfemur -55.2266 5.79503 0.923754
rtibia 52.2578 -0 0
rfoot 12.0377 10.6579 -0.0788505
rtoes -25.6662 0 0
lowerback 10.0822 0.49116 0.260003
upperback 2.56071 1.09487 4.39564
thorax -3.06212 0.651273 4.30847
lowerneck -7.91511 -13.6558 -4.92464
upperneck 12.5757 -18.1395 3.31887
head 5.85781 -8.81029 0.357388
lclavicle -3.79549e-14 1.41605e-14 -1.10004e-30
lhumerus -46.0025 -32.8794 117.356
lradius 58.7261 -0 0
lwrist 10.5415 0 0
lhand -1.9088 -3.21304 0.448933
lfingers 7.12502 -0 0
lthumb 23.7173 24.885 0.286464
rclavicle -3.79549e-14 1.41605e-14 -1.10004e-30
rhumerus -1.50266 33.0972 -73.0173
rradius 123.321 -0 0
rwrist -19.9051 0 0
rhand -2.14772 -15.1413 0.51097
rfingers 7.12502 -0 0
rthumb 23.478 -43.1073 0.676762
516
root 6.29789 15.9587 -4.86405 -171.859 69.4386 -176.352
lfemur -26.5002 -11.9182 -22.8337
ltibia 60.9921 -0 0
lfoot -27.7092 0.211096 -0.21073
ltoes 0.877964 -0 0
rfemur -54.4473 5.55152 0.249551
rtibia 50.9124 -0 0
rfoot 12.488 10.7864 -0.0962159
rtoes -26.8928 0 0
lowerback 10.3018 0.55243 0.441717
upperback 2.7563 1.23036 4.665
thorax -2.99195 0.726794 4.47129
lowerneck -7.75348 -13.9233 -5.13109
upperneck 12.7132 -18.4976 3.46393
head 5.92447 -8.97961 0.396231
lclavicle -4.10105e-14 1.39077e-14 -1.131e-30
lhumerus -45.7536 -32.5349 117.193
lradius 58.9889 -0 0
lwrist 11.2156 0 0
lhand -3.35704 -3.69739 0.452614
lfingers 7.12502 -0 0
lthumb 22.3293 24.5799 0.288799
rclavicle -4.10105e-14 1.39077e-14 -1.131e-30
rhumerus 0.658285 30.6093 -72.6438
rradius 124.903 -0 0
rwrist -23.1593 0 0
rhand -4.09653 -15.7804 0.540527
rfingers 7.12502 -0 0
rthumb 21.6061 -43.9606 0.712825
